<svg xmlns="http://www.w3.org/2000/svg" width="115" height="40" viewBox="0 0 115 40"><rect width="100%" height="100%" fill="#DDDDDD"/><path fill="#999999" d="M28.42 24.84h2.34v1.67h-7.2v-1.67h2.64v-7.58q0-.45.02-.93l-1.87 1.57q-.16.12-.32.15-.15.04-.29.01t-.25-.1q-.11-.06-.16-.14l-.71-.97 3.97-3.37h1.83zm10.44 0h2.34v1.67H34v-1.67h2.64v-7.58q0-.45.02-.93l-1.87 1.57q-.16.12-.32.15-.15.04-.29.01t-.25-.1q-.11-.06-.16-.14l-.71-.97 3.97-3.37h1.83zm7.58-9.33-.46 2.71q.43-.09.83-.13.39-.04.76-.04 1.03 0 1.81.31.79.3 1.32.84t.8 1.27q.27.72.27 1.56 0 1.03-.37 1.89-.36.85-1.01 1.46t-1.53.94q-.89.33-1.93.33-.62 0-1.17-.12-.55-.13-1.03-.34t-.89-.49q-.41-.27-.73-.58l.68-.94q.22-.31.57-.31.23 0 .46.15.23.14.53.31.31.17.72.32.41.14.98.14.61 0 1.08-.2t.78-.55q.31-.36.47-.85t.16-1.06q0-1.07-.62-1.66-.62-.6-1.82-.6-.93 0-1.9.34l-1.39-.4 1.08-6.31h6.43v.94q0 .48-.3.77-.3.3-1.01.3zm20.17 8.02-1.18 1.16-3.05-3.05-3.08 3.07-1.18-1.16 3.08-3.09-2.93-2.93 1.17-1.17 2.93 2.93 2.92-2.91 1.18 1.17-2.92 2.92zm7.79-1.93h3.96v-4.25q0-.61.08-1.33zm5.9 0h1.64v1.29q0 .18-.12.31t-.33.13H80.3v3.18h-1.94v-3.18h-5.49q-.22 0-.39-.14t-.22-.34l-.23-1.13 6.16-8.23h2.11zM92.38 20q0 1.7-.36 2.96-.36 1.25-1.01 2.07-.64.82-1.52 1.22t-1.89.4q-1.02 0-1.89-.4t-1.51-1.22-1-2.07q-.36-1.26-.36-2.96 0-1.71.36-2.96t1-2.07 1.51-1.22 1.89-.4q1.01 0 1.89.4t1.52 1.22q.65.82 1.01 2.07t.36 2.96m-2.29 0q0-1.41-.21-2.34-.2-.92-.55-1.47t-.8-.77-.93-.22-.93.22q-.44.22-.78.77-.35.55-.55 1.47-.2.93-.2 2.34 0 1.42.2 2.34.2.93.55 1.48.34.55.78.77.45.22.93.22t.93-.22.8-.77.55-1.48q.21-.92.21-2.34"/></svg>